<svg xmlns="http://www.w3.org/2000/svg" viewBox="0 0 48 48" fill="none" role="img" aria-label="BuildEx">
  <!-- app-icon plate so the mark stays legible on any tab bar -->
  <rect width="48" height="48" rx="11" fill="#0a1211"/>
  <g transform="translate(24 24) scale(.78) translate(-24 -24)">
    <g stroke="#2dd4bf" stroke-opacity=".75" stroke-width="1.6" stroke-linecap="round">
      <path d="M24 8 Q29.48 16.46 39.22 19.06"/>
      <path d="M39.22 19.06 Q32.86 26.88 33.40 36.94"/>
      <path d="M33.40 36.94 Q24 33.32 14.60 36.94"/>
      <path d="M14.60 36.94 Q15.14 26.88 8.78 19.06"/>
      <path d="M8.78 19.06 Q18.52 16.46 24 8"/>
    </g>
    <g fill="#2dd4bf">
      <circle cx="24" cy="8" r="3"/>
      <circle cx="39.22" cy="19.06" r="3"/>
      <circle cx="33.40" cy="36.94" r="3"/>
      <circle cx="8.78" cy="19.06" r="3"/>
    </g>
    <circle cx="14.60" cy="36.94" r="6.4" stroke="#f0a94b" stroke-width="1.8" opacity=".7"/>
    <circle cx="14.60" cy="36.94" r="4.1" fill="#f0a94b"/>
    <circle cx="24" cy="24" r="5.4" fill="#0a1211" stroke="#2dd4bf" stroke-width="2"/>
    <circle cx="24" cy="24" r="2.4" fill="#2dd4bf"/>
  </g>
</svg>
